<svg xmlns="http://www.w3.org/2000/svg" xmlns:xlink="http://www.w3.org/1999/xlink" contentStyleType="text/css" height="267px" preserveAspectRatio="none" style="width:311px;height:267px;background:#FFFFFF;" version="1.1" viewBox="0 0 311 267" width="311px" zoomAndPan="magnify"><defs/><g><!--cluster demo--><g id="cluster_demo"><path d="M8.5,96.29 L53.2227,96.29 A3.75,3.75 0 0 1 55.7227,98.79 L62.7227,118.5869 L301.5,118.5869 A2.5,2.5 0 0 1 304,121.0869 L304,257.98 A2.5,2.5 0 0 1 301.5,260.48 L8.5,260.48 A2.5,2.5 0 0 1 6,257.98 L6,98.79 A2.5,2.5 0 0 1 8.5,96.29 " fill="none" style="stroke:#000000;stroke-width:1.5;"/><line style="stroke:#000000;stroke-width:1.5;" x1="6" x2="62.7227" y1="118.5869" y2="118.5869"/><text fill="#000000" font-family="sans-serif" font-size="14" font-weight="bold" lengthAdjust="spacing" textLength="43.7227" x="10" y="111.2851">demo</text></g><!--class Money--><g id="elem_Money"><rect codeLine="2" fill="#F1F1F1" height="113.1875" id="Money" rx="2.5" ry="2.5" style="stroke:#181818;stroke-width:0.5;" width="265.3057" x="22.35" y="131.29"/><ellipse cx="127.5448" cy="147.29" fill="#ADD1B2" rx="11" ry="11" style="stroke:#181818;stroke-width:1.0;"/><path d="M130.5136,152.9306 Q129.9354,153.2275 129.2948,153.3681 Q128.6542,153.5244 127.9511,153.5244 Q125.4511,153.5244 124.1229,151.8838 Q122.8104,150.2275 122.8104,147.1025 Q122.8104,143.9775 124.1229,142.3213 Q125.4511,140.665 127.9511,140.665 Q128.6542,140.665 129.2948,140.8213 Q129.9511,140.9775 130.5136,141.2744 L130.5136,143.9931 Q129.8886,143.415 129.2948,143.1494 Q128.7011,142.8681 128.0761,142.8681 Q126.7323,142.8681 126.0448,143.9463 Q125.3573,145.0088 125.3573,147.1025 Q125.3573,149.1963 126.0448,150.2744 Q126.7323,151.3369 128.0761,151.3369 Q128.7011,151.3369 129.2948,151.0713 Q129.8886,150.79 130.5136,150.2119 L130.5136,152.9306 Z " fill="#000000"/><text fill="#000000" font-family="sans-serif" font-size="14" lengthAdjust="spacing" textLength="46.416" x="148.0448" y="152.1367">Money</text><line style="stroke:#181818;stroke-width:0.5;" x1="23.35" x2="286.6557" y1="163.29" y2="163.29"/><rect fill="none" height="6" style="stroke:#C82930;stroke-width:1.0;" width="6" x="30.35" y="173.9384"/><text fill="#000000" font-family="sans-serif" font-size="14" lengthAdjust="spacing" textLength="81.4365" x="42.35" y="180.2851">amount: int</text><rect fill="none" height="6" style="stroke:#C82930;stroke-width:1.0;" width="6" x="30.35" y="190.2353"/><text fill="#000000" font-family="sans-serif" font-size="14" lengthAdjust="spacing" textLength="112.499" x="42.35" y="196.582">currency: String</text><line style="stroke:#181818;stroke-width:0.5;" x1="23.35" x2="286.6557" y1="203.8838" y2="203.8838"/><ellipse cx="33.35" cy="217.5322" fill="#84BE84" rx="3" ry="3" style="stroke:#038048;stroke-width:1.0;"/><text fill="#000000" font-family="sans-serif" font-size="14" lengthAdjust="spacing" textLength="239.3057" x="42.35" y="220.8789">this(amount: int, currency: String)</text><ellipse cx="33.35" cy="233.8291" fill="#84BE84" rx="3" ry="3" style="stroke:#038048;stroke-width:1.0;"/><text fill="#000000" font-family="sans-serif" font-size="14" lengthAdjust="spacing" textLength="176.873" x="42.35" y="237.1757">add(that: Money): Money</text></g><!--class Main--><g id="elem_Main"><rect codeLine="9" fill="#F1F1F1" height="64.2969" id="Main" rx="2.5" ry="2.5" style="stroke:#181818;stroke-width:0.5;" width="164.291" x="72.85" y="7"/><ellipse cx="134.0351" cy="23" fill="#ADD1B2" rx="11" ry="11" style="stroke:#181818;stroke-width:1.0;"/><path d="M137.0038,28.6406 Q136.4257,28.9375 135.7851,29.0781 Q135.1444,29.2344 134.4413,29.2344 Q131.9413,29.2344 130.6132,27.5938 Q129.3007,25.9375 129.3007,22.8125 Q129.3007,19.6875 130.6132,18.0313 Q131.9413,16.375 134.4413,16.375 Q135.1444,16.375 135.7851,16.5313 Q136.4413,16.6875 137.0038,16.9844 L137.0038,19.7031 Q136.3788,19.125 135.7851,18.8594 Q135.1913,18.5781 134.5663,18.5781 Q133.2226,18.5781 132.5351,19.6563 Q131.8476,20.7188 131.8476,22.8125 Q131.8476,24.9063 132.5351,25.9844 Q133.2226,27.0469 134.5663,27.0469 Q135.1913,27.0469 135.7851,26.7813 Q136.3788,26.5 137.0038,25.9219 L137.0038,28.6406 Z " fill="#000000"/><text fill="#000000" font-family="sans-serif" font-size="14" lengthAdjust="spacing" textLength="33.4209" x="154.5351" y="27.8467">Main</text><line style="stroke:#181818;stroke-width:0.5;" x1="73.85" x2="236.141" y1="39" y2="39"/><line style="stroke:#181818;stroke-width:0.5;" x1="73.85" x2="236.141" y1="47" y2="47"/><ellipse cx="83.85" cy="60.6484" fill="#84BE84" rx="3" ry="3" style="stroke:#038048;stroke-width:1.0;"/><text fill="#000000" font-family="sans-serif" font-size="14" lengthAdjust="spacing" text-decoration="underline" textLength="138.291" x="92.85" y="63.9951">main(args: String[])</text></g><!--link Main to Money--><g id="link_Main_Money"><path codeLine="12" d="M155,71.62 C155,88.89 155,110.81 155,130.88 " fill="none" id="Main-Money" style="stroke:#181818;stroke-width:1.0;"/></g><!--SRC=[POqn2iCm34LtdqAZJUeBv0wTEfOEmZQEQ2qNMnb2oDqZqXGAHOFudyVxRmnFp0bYAXLM4rxOErmhfqMJ1onrPXc1M3I5kRN4OHdX9equcm5aecv_gCiVv9J26ArCgCYXTkStczuvYSIwEC3Q1ON21aKRYotth-Z-S8eVeFSVmGu0]--></g></svg>