<svg xmlns="http://www.w3.org/2000/svg" xmlns:xlink="http://www.w3.org/1999/xlink" contentStyleType="text/css" height="744px" preserveAspectRatio="none" style="width:821px;height:744px;background:#FFFFFF;" version="1.1" viewBox="0 0 821 744" width="821px" zoomAndPan="magnify"><defs/><g><!--cluster bank--><g id="cluster_bank"><path d="M82.72,96.29 L122.4661,96.29 A3.75,3.75 0 0 1 124.9661,98.79 L131.9661,118.5869 L811.72,118.5869 A2.5,2.5 0 0 1 814.22,121.0869 L814.22,734.73 A2.5,2.5 0 0 1 811.72,737.23 L82.72,737.23 A2.5,2.5 0 0 1 80.22,734.73 L80.22,98.79 A2.5,2.5 0 0 1 82.72,96.29 " fill="none" style="stroke:#000000;stroke-width:1.5;"/><line style="stroke:#000000;stroke-width:1.5;" x1="80.22" x2="131.9661" y1="118.5869" y2="118.5869"/><text fill="#000000" font-family="sans-serif" font-size="14" font-weight="bold" lengthAdjust="spacing" textLength="38.7461" x="84.22" y="111.2851">bank</text></g><!--class MoneyBag--><g id="elem_MoneyBag"><rect codeLine="2" fill="#F1F1F1" height="64.2969" id="MoneyBag" rx="2.5" ry="2.5" style="stroke:#181818;stroke-width:0.5;" width="198.2725" x="531.08" y="443"/><ellipse cx="589.2231" cy="459" fill="#ADD1B2" rx="11" ry="11" style="stroke:#181818;stroke-width:1.0;"/><path d="M592.1918,464.6406 Q591.6137,464.9375 590.9731,465.0781 Q590.3324,465.2344 589.6293,465.2344 Q587.1293,465.2344 585.8012,463.5938 Q584.4887,461.9375 584.4887,458.8125 Q584.4887,455.6875 585.8012,454.0313 Q587.1293,452.375 589.6293,452.375 Q590.3324,452.375 590.9731,452.5313 Q591.6293,452.6875 592.1918,452.9844 L592.1918,455.7031 Q591.5668,455.125 590.9731,454.8594 Q590.3793,454.5781 589.7543,454.5781 Q588.4106,454.5781 587.7231,455.6563 Q587.0356,456.7188 587.0356,458.8125 Q587.0356,460.9063 587.7231,461.9844 Q588.4106,463.0469 589.7543,463.0469 Q590.3793,463.0469 590.9731,462.7813 Q591.5668,462.5 592.1918,461.9219 L592.1918,464.6406 Z " fill="#000000"/><text fill="#000000" font-family="sans-serif" font-size="14" lengthAdjust="spacing" textLength="73.4863" x="609.7231" y="463.8467">MoneyBag</text><line style="stroke:#181818;stroke-width:0.5;" x1="532.08" x2="728.3525" y1="475" y2="475"/><rect fill="none" height="6" style="stroke:#C82930;stroke-width:1.0;" width="6" x="539.08" y="485.6484"/><text fill="#000000" font-family="sans-serif" font-size="14" lengthAdjust="spacing" textLength="172.2725" x="551.08" y="491.9951">bag : ArrayList&lt;Money&gt;</text><line style="stroke:#181818;stroke-width:0.5;" x1="532.08" x2="728.3525" y1="499.2969" y2="499.2969"/></g><!--class Money--><g id="elem_Money"><rect codeLine="5" fill="#F1F1F1" height="129.4844" id="Money" rx="2.5" ry="2.5" style="stroke:#181818;stroke-width:0.5;" width="265.3057" x="497.56" y="591.75"/><ellipse cx="602.7548" cy="607.75" fill="#ADD1B2" rx="11" ry="11" style="stroke:#181818;stroke-width:1.0;"/><path d="M605.7236,613.3906 Q605.1454,613.6875 604.5048,613.8281 Q603.8642,613.9844 603.1611,613.9844 Q600.6611,613.9844 599.3329,612.3438 Q598.0204,610.6875 598.0204,607.5625 Q598.0204,604.4375 599.3329,602.7813 Q600.6611,601.125 603.1611,601.125 Q603.8642,601.125 604.5048,601.2813 Q605.1611,601.4375 605.7236,601.7344 L605.7236,604.4531 Q605.0986,603.875 604.5048,603.6094 Q603.9111,603.3281 603.2861,603.3281 Q601.9423,603.3281 601.2548,604.4063 Q600.5673,605.4688 600.5673,607.5625 Q600.5673,609.6563 601.2548,610.7344 Q601.9423,611.7969 603.2861,611.7969 Q603.9111,611.7969 604.5048,611.5313 Q605.0986,611.25 605.7236,610.6719 L605.7236,613.3906 Z " fill="#000000"/><text fill="#000000" font-family="sans-serif" font-size="14" lengthAdjust="spacing" textLength="46.416" x="623.2548" y="612.5967">Money</text><line style="stroke:#181818;stroke-width:0.5;" x1="498.56" x2="761.8657" y1="623.75" y2="623.75"/><rect fill="none" height="6" style="stroke:#C82930;stroke-width:1.0;" width="6" x="505.56" y="634.3984"/><text fill="#000000" font-family="sans-serif" font-size="14" lengthAdjust="spacing" textLength="94.6367" x="517.56" y="640.7451">amount: float</text><rect fill="none" height="6" style="stroke:#C82930;stroke-width:1.0;" width="6" x="505.56" y="650.6953"/><text fill="#000000" font-family="sans-serif" font-size="14" lengthAdjust="spacing" textLength="112.499" x="517.56" y="657.042">currency: String</text><line style="stroke:#181818;stroke-width:0.5;" x1="498.56" x2="761.8657" y1="664.3438" y2="664.3438"/><ellipse cx="508.56" cy="677.9922" fill="#84BE84" rx="3" ry="3" style="stroke:#038048;stroke-width:1.0;"/><text fill="#000000" font-family="sans-serif" font-size="14" lengthAdjust="spacing" textLength="239.3057" x="517.56" y="681.3389">this(amount: int, currency: String)</text><ellipse cx="508.56" cy="694.2891" fill="#84BE84" rx="3" ry="3" style="stroke:#038048;stroke-width:1.0;"/><text fill="#000000" font-family="sans-serif" font-size="14" lengthAdjust="spacing" textLength="176.873" x="517.56" y="697.6357">add(that: Money): Money</text><ellipse cx="508.56" cy="710.5859" fill="#84BE84" rx="3" ry="3" style="stroke:#038048;stroke-width:1.0;"/><text fill="#000000" font-family="sans-serif" font-size="14" lengthAdjust="spacing" textLength="175.5742" x="517.56" y="713.9326">sub(that: Money): Money</text></g><!--class Person--><g id="elem_Person"><rect codeLine="13" fill="#F1F1F1" height="113.1875" id="Person" rx="2.5" ry="2.5" style="stroke:#181818;stroke-width:0.5;" width="400.4385" x="96" y="418.56"/><ellipse cx="268.1973" cy="434.56" fill="#ADD1B2" rx="11" ry="11" style="stroke:#181818;stroke-width:1.0;"/><path d="M271.166,440.2006 Q270.5879,440.4975 269.9473,440.6381 Q269.3066,440.7944 268.6035,440.7944 Q266.1035,440.7944 264.7754,439.1538 Q263.4629,437.4975 263.4629,434.3725 Q263.4629,431.2475 264.7754,429.5913 Q266.1035,427.935 268.6035,427.935 Q269.3066,427.935 269.9473,428.0913 Q270.6035,428.2475 271.166,428.5444 L271.166,431.2631 Q270.541,430.685 269.9473,430.4194 Q269.3535,430.1381 268.7285,430.1381 Q267.3848,430.1381 266.6973,431.2163 Q266.0098,432.2788 266.0098,434.3725 Q266.0098,436.4663 266.6973,437.5444 Q267.3848,438.6069 268.7285,438.6069 Q269.3535,438.6069 269.9473,438.3413 Q270.541,438.06 271.166,437.4819 L271.166,440.2006 Z " fill="#000000"/><text fill="#000000" font-family="sans-serif" font-size="14" lengthAdjust="spacing" textLength="47.5439" x="288.6973" y="439.4067">Person</text><line style="stroke:#181818;stroke-width:0.5;" x1="97" x2="495.4385" y1="450.56" y2="450.56"/><rect fill="none" height="6" style="stroke:#C82930;stroke-width:1.0;" width="6" x="104" y="461.2084"/><text fill="#000000" font-family="sans-serif" font-size="14" lengthAdjust="spacing" textLength="119.6084" x="116" y="467.5551">firstName: String</text><rect fill="none" height="6" style="stroke:#C82930;stroke-width:1.0;" width="6" x="104" y="477.5053"/><text fill="#000000" font-family="sans-serif" font-size="14" lengthAdjust="spacing" textLength="117.5029" x="116" y="483.852">lastName: String</text><rect fill="none" height="6" style="stroke:#C82930;stroke-width:1.0;" width="6" x="104" y="493.8022"/><text fill="#000000" font-family="sans-serif" font-size="14" lengthAdjust="spacing" textLength="83.0566" x="116" y="500.1489">addr: String</text><line style="stroke:#181818;stroke-width:0.5;" x1="97" x2="495.4385" y1="507.4506" y2="507.4506"/><ellipse cx="107" cy="521.0991" fill="#84BE84" rx="3" ry="3" style="stroke:#038048;stroke-width:1.0;"/><text fill="#000000" font-family="sans-serif" font-size="14" lengthAdjust="spacing" textLength="374.4385" x="116" y="524.4457">this(firstName: String, lastName: String, addr: String)</text></g><!--class Account--><g id="elem_Account"><rect codeLine="19" fill="#F1F1F1" height="227.2656" id="Account" rx="2.5" ry="2.5" style="stroke:#181818;stroke-width:0.5;" width="702.5596" x="95.94" y="131.29"/><ellipse cx="414.5836" cy="147.29" fill="#ADD1B2" rx="11" ry="11" style="stroke:#181818;stroke-width:1.0;"/><path d="M417.5523,152.9306 Q416.9742,153.2275 416.3336,153.3681 Q415.6929,153.5244 414.9898,153.5244 Q412.4898,153.5244 411.1617,151.8837 Q409.8492,150.2275 409.8492,147.1025 Q409.8492,143.9775 411.1617,142.3212 Q412.4898,140.665 414.9898,140.665 Q415.6929,140.665 416.3336,140.8212 Q416.9898,140.9775 417.5523,141.2744 L417.5523,143.9931 Q416.9273,143.415 416.3336,143.1494 Q415.7398,142.8681 415.1148,142.8681 Q413.7711,142.8681 413.0836,143.9462 Q412.3961,145.0087 412.3961,147.1025 Q412.3961,149.1962 413.0836,150.2744 Q413.7711,151.3369 415.1148,151.3369 Q415.7398,151.3369 416.3336,151.0712 Q416.9273,150.79 417.5523,150.2119 L417.5523,152.9306 Z " fill="#000000"/><text fill="#000000" font-family="sans-serif" font-size="14" lengthAdjust="spacing" textLength="56.7725" x="435.0836" y="152.1367">Account</text><line style="stroke:#181818;stroke-width:0.5;" x1="96.94" x2="797.4996" y1="163.29" y2="163.29"/><rect fill="none" height="6" style="stroke:#C82930;stroke-width:1.0;" width="6" x="103.94" y="173.9384"/><text fill="#000000" font-family="sans-serif" font-size="14" lengthAdjust="spacing" textLength="82.0586" x="115.94" y="180.2851">number: int</text><rect fill="none" height="6" style="stroke:#C82930;stroke-width:1.0;" width="6" x="103.94" y="190.2353"/><text fill="#000000" font-family="sans-serif" font-size="14" lengthAdjust="spacing" textLength="99.9688" x="115.94" y="196.582">owner: Person</text><rect fill="none" height="6" style="stroke:#C82930;stroke-width:1.0;" width="6" x="103.94" y="206.5322"/><text fill="#000000" font-family="sans-serif" font-size="14" lengthAdjust="spacing" textLength="137.7715" x="115.94" y="212.8789">balance: MoneyBag</text><rect fill="none" height="6" style="stroke:#C82930;stroke-width:1.0;" width="6" x="103.94" y="222.8291"/><text fill="#000000" font-family="sans-serif" font-size="14" lengthAdjust="spacing" textLength="139.4668" x="115.94" y="229.1757">maxOverdraw: float</text><rect fill="none" height="6" style="stroke:#C82930;stroke-width:1.0;" width="6" x="103.94" y="239.1259"/><text fill="#000000" font-family="sans-serif" font-size="14" lengthAdjust="spacing" textLength="150.3564" x="115.94" y="245.4726">maxWithdrawal: float</text><line style="stroke:#181818;stroke-width:0.5;" x1="96.94" x2="797.4996" y1="252.7744" y2="252.7744"/><ellipse cx="106.94" cy="266.4228" fill="#84BE84" rx="3" ry="3" style="stroke:#038048;stroke-width:1.0;"/><text fill="#000000" font-family="sans-serif" font-size="14" lengthAdjust="spacing" textLength="227.3975" x="115.94" y="269.7695">this(number: int, owner: Person)</text><ellipse cx="106.94" cy="282.7197" fill="#84BE84" rx="3" ry="3" style="stroke:#038048;stroke-width:1.0;"/><text fill="#000000" font-family="sans-serif" font-size="14" lengthAdjust="spacing" textLength="368.9355" x="115.94" y="286.0664">this(number: int, owner: Person, initialDeposit: float)</text><ellipse cx="106.94" cy="299.0166" fill="#84BE84" rx="3" ry="3" style="stroke:#038048;stroke-width:1.0;"/><text fill="#000000" font-family="sans-serif" font-size="14" lengthAdjust="spacing" textLength="676.5596" x="115.94" y="302.3632">this(number: int, owner: Person, initialDeposit: float, maxOverdraw: float, maxWithdrawal: float)</text><ellipse cx="106.94" cy="315.3134" fill="#84BE84" rx="3" ry="3" style="stroke:#038048;stroke-width:1.0;"/><text fill="#000000" font-family="sans-serif" font-size="14" lengthAdjust="spacing" textLength="184.6865" x="115.94" y="318.6601">credit(amount: float): void</text><ellipse cx="106.94" cy="331.6103" fill="#84BE84" rx="3" ry="3" style="stroke:#038048;stroke-width:1.0;"/><text fill="#000000" font-family="sans-serif" font-size="14" lengthAdjust="spacing" textLength="180.1201" x="115.94" y="334.957">debit(amount: float): void</text><ellipse cx="106.94" cy="347.9072" fill="#84BE84" rx="3" ry="3" style="stroke:#038048;stroke-width:1.0;"/><text fill="#000000" font-family="sans-serif" font-size="14" lengthAdjust="spacing" textLength="352.4951" x="115.94" y="351.2539">transfer(beneficiary: Account, amount: float): void</text></g><!--class Main--><g id="elem_Main"><rect codeLine="33" fill="#F1F1F1" height="64.2969" id="Main" rx="2.5" ry="2.5" style="stroke:#181818;stroke-width:0.5;" width="164.291" x="163.07" y="7"/><ellipse cx="224.2551" cy="23" fill="#ADD1B2" rx="11" ry="11" style="stroke:#181818;stroke-width:1.0;"/><path d="M227.2238,28.6406 Q226.6457,28.9375 226.0051,29.0781 Q225.3644,29.2344 224.6613,29.2344 Q222.1613,29.2344 220.8332,27.5938 Q219.5207,25.9375 219.5207,22.8125 Q219.5207,19.6875 220.8332,18.0313 Q222.1613,16.375 224.6613,16.375 Q225.3644,16.375 226.0051,16.5313 Q226.6613,16.6875 227.2238,16.9844 L227.2238,19.7031 Q226.5988,19.125 226.0051,18.8594 Q225.4113,18.5781 224.7863,18.5781 Q223.4426,18.5781 222.7551,19.6563 Q222.0676,20.7188 222.0676,22.8125 Q222.0676,24.9063 222.7551,25.9844 Q223.4426,27.0469 224.7863,27.0469 Q225.4113,27.0469 226.0051,26.7813 Q226.5988,26.5 227.2238,25.9219 L227.2238,28.6406 Z " fill="#000000"/><text fill="#000000" font-family="sans-serif" font-size="14" lengthAdjust="spacing" textLength="33.4209" x="244.7551" y="27.8467">Main</text><line style="stroke:#181818;stroke-width:0.5;" x1="164.07" x2="326.361" y1="39" y2="39"/><line style="stroke:#181818;stroke-width:0.5;" x1="164.07" x2="326.361" y1="47" y2="47"/><ellipse cx="174.07" cy="60.6484" fill="#84BE84" rx="3" ry="3" style="stroke:#038048;stroke-width:1.0;"/><text fill="#000000" font-family="sans-serif" font-size="14" lengthAdjust="spacing" text-decoration="underline" textLength="138.291" x="183.07" y="63.9951">main(args: String[])</text></g><!--link Main to Account--><g id="link_Main_Account"><path codeLine="37" d="M276.34,71.54 C292.6,87.95 313.62,109.15 335.31,131.03 " fill="none" id="Main-Account" style="stroke:#181818;stroke-width:1.0;"/></g><!--link Main to Person--><g id="link_Main_Person"><path codeLine="38" d="M162.66,54.33 C126.16,62.44 89.06,73.89 78.22,88.29 C6,184.28 16.29,255.63 78.22,358.56 C92.96,383.06 114.83,402.64 139.12,418.21 " fill="none" id="Main-Person" style="stroke:#181818;stroke-width:1.0;"/></g><!--reverse link MoneyBag to Money--><g id="link_MoneyBag_Money"><path codeLine="40" d="M630.22,519.39 C630.22,542.57 630.22,562.98 630.22,591.57 " fill="none" id="MoneyBag-backto-Money" style="stroke:#181818;stroke-width:1.0;"/><polygon fill="#181818" points="630.22,507.39,626.22,513.39,630.22,519.39,634.22,513.39,630.22,507.39" style="stroke:#181818;stroke-width:1.0;"/></g><!--reverse link Account to MoneyBag--><g id="link_Account_MoneyBag"><path codeLine="41" d="M545.4179,368.4012 C570.0479,399.1112 587.24,420.56 604.89,442.56 " fill="none" id="Account-backto-MoneyBag" style="stroke:#181818;stroke-width:1.0;"/><polygon fill="#181818" points="537.91,359.04,538.5435,366.2232,545.4179,368.4012,544.7843,361.218,537.91,359.04" style="stroke:#181818;stroke-width:1.0;"/></g><!--reverse link Account to Person--><g id="link_Account_Person"><path codeLine="42" d="M365.7561,369.0462 C352.1061,389.6662 345.06,400.33 333.14,418.34 " fill="none" id="Account-backto-Person" style="stroke:#181818;stroke-width:1.0;"/><polygon fill="none" points="372.38,359.04,365.7327,361.8351,365.7561,369.0462,372.4035,366.2511,372.38,359.04" style="stroke:#181818;stroke-width:1.0;"/></g><!--SRC=[dL9DRuCm3BtpAtA4DVm1D4tgjEE-f1rsc7Om8L2ha5HEQ5TL_FSv56YxCatQAVBpS_pivmseDLHQv63MuX2f6fmJJzRe_JrKXoZbH2KoiII2_ICwVzldxgBkd2e24HhR6f-9ihRWELOjaJPgduatJsYgQ27y2bqyyj1uUKLAc0L54ViLCAN_F1bUphWsdyrqqQ3cLPEp9gWfaPn_XaPFxLF1b9yGzwAV0gzAvLMbl2XCfcqibGh31G6cRN9D_PWSsPq9mL5VlzKQZDBPj6h66lXwsMeg27QdBJBuZduLGAX7U11wra9UTaZ-faZ6q2FK3tfZ7Ox6_RzIpWmWP_M77efqWJw-E1hsSsknu6oXyz-Jdi2uKbESQwDBL0Z4zpEiNehPgkvqi826xtKX3iw3HzMnH3GnKEL6Fpy-WwDHpqpJyUSf7aoCHkl43OF7Gnoe9oGuEu9sglq6]--></g></svg>