<svg xmlns="http://www.w3.org/2000/svg" xmlns:xlink="http://www.w3.org/1999/xlink" contentStyleType="text/css" height="603px" preserveAspectRatio="none" style="width:877px;height:603px;background:#FFFFFF;" version="1.1" viewBox="0 0 877 603" width="877px" zoomAndPan="magnify"><defs/><g><!--cluster bank--><g id="cluster_bank"><path d="M138.53,96.3 L178.2761,96.3 A3.75,3.75 0 0 1 180.7761,98.8 L187.7761,118.5969 L867.53,118.5969 A2.5,2.5 0 0 1 870.03,121.0969 L870.03,594.14 A2.5,2.5 0 0 1 867.53,596.64 L138.53,596.64 A2.5,2.5 0 0 1 136.03,594.14 L136.03,98.8 A2.5,2.5 0 0 1 138.53,96.3 " fill="none" style="stroke:#000000;stroke-width:1.5;"/><line style="stroke:#000000;stroke-width:1.5;" x1="136.03" x2="187.7761" y1="118.5969" y2="118.5969"/><text fill="#000000" font-family="sans-serif" font-size="14" font-weight="bold" lengthAdjust="spacing" textLength="38.7461" x="140.03" y="111.2951">bank</text></g><!--class Money--><g id="elem_Money"><rect codeLine="2" fill="#F1F1F1" height="129.4844" id="Money" rx="2.5" ry="2.5" style="stroke:#181818;stroke-width:0.5;" width="265.3057" x="152.37" y="451.16"/><ellipse cx="257.5648" cy="467.16" fill="#ADD1B2" rx="11" ry="11" style="stroke:#181818;stroke-width:1.0;"/><path d="M260.5336,472.8006 Q259.9554,473.0975 259.3148,473.2381 Q258.6742,473.3944 257.9711,473.3944 Q255.4711,473.3944 254.1429,471.7537 Q252.8304,470.0975 252.8304,466.9725 Q252.8304,463.8475 254.1429,462.1912 Q255.4711,460.535 257.9711,460.535 Q258.6742,460.535 259.3148,460.6912 Q259.9711,460.8475 260.5336,461.1444 L260.5336,463.8631 Q259.9086,463.285 259.3148,463.0194 Q258.7211,462.7381 258.0961,462.7381 Q256.7523,462.7381 256.0648,463.8162 Q255.3773,464.8787 255.3773,466.9725 Q255.3773,469.0662 256.0648,470.1444 Q256.7523,471.2069 258.0961,471.2069 Q258.7211,471.2069 259.3148,470.9412 Q259.9086,470.66 260.5336,470.0819 L260.5336,472.8006 Z " fill="#000000"/><text fill="#000000" font-family="sans-serif" font-size="14" lengthAdjust="spacing" textLength="46.416" x="278.0648" y="472.0067">Money</text><line style="stroke:#181818;stroke-width:0.5;" x1="153.37" x2="416.6757" y1="483.16" y2="483.16"/><rect fill="none" height="6" style="stroke:#C82930;stroke-width:1.0;" width="6" x="160.37" y="493.8084"/><text fill="#000000" font-family="sans-serif" font-size="14" lengthAdjust="spacing" textLength="94.6367" x="172.37" y="500.1551">amount: float</text><rect fill="none" height="6" style="stroke:#C82930;stroke-width:1.0;" width="6" x="160.37" y="510.1053"/><text fill="#000000" font-family="sans-serif" font-size="14" lengthAdjust="spacing" textLength="112.499" x="172.37" y="516.452">currency: String</text><line style="stroke:#181818;stroke-width:0.5;" x1="153.37" x2="416.6757" y1="523.7538" y2="523.7538"/><ellipse cx="163.37" cy="537.4022" fill="#84BE84" rx="3" ry="3" style="stroke:#038048;stroke-width:1.0;"/><text fill="#000000" font-family="sans-serif" font-size="14" lengthAdjust="spacing" textLength="239.3057" x="172.37" y="540.7489">this(amount: int, currency: String)</text><ellipse cx="163.37" cy="553.6991" fill="#84BE84" rx="3" ry="3" style="stroke:#038048;stroke-width:1.0;"/><text fill="#000000" font-family="sans-serif" font-size="14" lengthAdjust="spacing" textLength="176.873" x="172.37" y="557.0457">add(that: Money): Money</text><ellipse cx="163.37" cy="569.9959" fill="#84BE84" rx="3" ry="3" style="stroke:#038048;stroke-width:1.0;"/><text fill="#000000" font-family="sans-serif" font-size="14" lengthAdjust="spacing" textLength="175.5742" x="172.37" y="573.3426">sub(that: Money): Money</text></g><!--class Person--><g id="elem_Person"><rect codeLine="10" fill="#F1F1F1" height="113.1875" id="Person" rx="2.5" ry="2.5" style="stroke:#181818;stroke-width:0.5;" width="400.4385" x="452.81" y="459.3"/><ellipse cx="625.0073" cy="475.3" fill="#ADD1B2" rx="11" ry="11" style="stroke:#181818;stroke-width:1.0;"/><path d="M627.976,480.9406 Q627.3979,481.2375 626.7573,481.3781 Q626.1166,481.5344 625.4135,481.5344 Q622.9135,481.5344 621.5854,479.8937 Q620.2729,478.2375 620.2729,475.1125 Q620.2729,471.9875 621.5854,470.3312 Q622.9135,468.675 625.4135,468.675 Q626.1166,468.675 626.7573,468.8312 Q627.4135,468.9875 627.976,469.2844 L627.976,472.0031 Q627.351,471.425 626.7573,471.1594 Q626.1635,470.8781 625.5385,470.8781 Q624.1948,470.8781 623.5073,471.9562 Q622.8198,473.0187 622.8198,475.1125 Q622.8198,477.2062 623.5073,478.2844 Q624.1948,479.3469 625.5385,479.3469 Q626.1635,479.3469 626.7573,479.0812 Q627.351,478.8 627.976,478.2219 L627.976,480.9406 Z " fill="#000000"/><text fill="#000000" font-family="sans-serif" font-size="14" lengthAdjust="spacing" textLength="47.5439" x="645.5073" y="480.1467">Person</text><line style="stroke:#181818;stroke-width:0.5;" x1="453.81" x2="852.2485" y1="491.3" y2="491.3"/><rect fill="none" height="6" style="stroke:#C82930;stroke-width:1.0;" width="6" x="460.81" y="501.9484"/><text fill="#000000" font-family="sans-serif" font-size="14" lengthAdjust="spacing" textLength="119.6084" x="472.81" y="508.2951">firstName: String</text><rect fill="none" height="6" style="stroke:#C82930;stroke-width:1.0;" width="6" x="460.81" y="518.2453"/><text fill="#000000" font-family="sans-serif" font-size="14" lengthAdjust="spacing" textLength="117.5029" x="472.81" y="524.592">lastName: String</text><rect fill="none" height="6" style="stroke:#C82930;stroke-width:1.0;" width="6" x="460.81" y="534.5422"/><text fill="#000000" font-family="sans-serif" font-size="14" lengthAdjust="spacing" textLength="83.0566" x="472.81" y="540.8889">addr: String</text><line style="stroke:#181818;stroke-width:0.5;" x1="453.81" x2="852.2485" y1="548.1906" y2="548.1906"/><ellipse cx="463.81" cy="561.8391" fill="#84BE84" rx="3" ry="3" style="stroke:#038048;stroke-width:1.0;"/><text fill="#000000" font-family="sans-serif" font-size="14" lengthAdjust="spacing" textLength="374.4385" x="472.81" y="565.1857">this(firstName: String, lastName: String, addr: String)</text></g><!--class Account--><g id="elem_Account"><rect codeLine="16" fill="#F1F1F1" height="259.8594" id="Account" rx="2.5" ry="2.5" style="stroke:#181818;stroke-width:0.5;" width="702.5596" x="151.75" y="131.3"/><ellipse cx="470.3936" cy="147.3" fill="#ADD1B2" rx="11" ry="11" style="stroke:#181818;stroke-width:1.0;"/><path d="M473.3623,152.9406 Q472.7842,153.2375 472.1436,153.3781 Q471.5029,153.5344 470.7998,153.5344 Q468.2998,153.5344 466.9717,151.8938 Q465.6592,150.2375 465.6592,147.1125 Q465.6592,143.9875 466.9717,142.3313 Q468.2998,140.675 470.7998,140.675 Q471.5029,140.675 472.1436,140.8313 Q472.7998,140.9875 473.3623,141.2844 L473.3623,144.0031 Q472.7373,143.425 472.1436,143.1594 Q471.5498,142.8781 470.9248,142.8781 Q469.5811,142.8781 468.8936,143.9563 Q468.2061,145.0188 468.2061,147.1125 Q468.2061,149.2063 468.8936,150.2844 Q469.5811,151.3469 470.9248,151.3469 Q471.5498,151.3469 472.1436,151.0813 Q472.7373,150.8 473.3623,150.2219 L473.3623,152.9406 Z " fill="#000000"/><text fill="#000000" font-family="sans-serif" font-size="14" lengthAdjust="spacing" textLength="56.7725" x="490.8936" y="152.1467">Account</text><line style="stroke:#181818;stroke-width:0.5;" x1="152.75" x2="853.3096" y1="163.3" y2="163.3"/><rect fill="none" height="6" style="stroke:#C82930;stroke-width:1.0;" width="6" x="159.75" y="173.9484"/><text fill="#000000" font-family="sans-serif" font-size="14" lengthAdjust="spacing" textLength="82.0586" x="171.75" y="180.2951">number: int</text><rect fill="none" height="6" style="stroke:#C82930;stroke-width:1.0;" width="6" x="159.75" y="190.2453"/><text fill="#000000" font-family="sans-serif" font-size="14" lengthAdjust="spacing" textLength="99.9688" x="171.75" y="196.592">owner: Person</text><rect fill="none" height="6" style="stroke:#C82930;stroke-width:1.0;" width="6" x="159.75" y="206.5422"/><text fill="#000000" font-family="sans-serif" font-size="14" lengthAdjust="spacing" textLength="109.6006" x="171.75" y="212.8889">amount: Money</text><rect fill="none" height="6" style="stroke:#C82930;stroke-width:1.0;" width="6" x="159.75" y="222.8391"/><text fill="#000000" font-family="sans-serif" font-size="14" lengthAdjust="spacing" textLength="160.0225" x="171.75" y="229.1857">currentOverdraw: float</text><rect fill="none" height="6" style="stroke:#C82930;stroke-width:1.0;" width="6" x="159.75" y="239.1359"/><text fill="#000000" font-family="sans-serif" font-size="14" lengthAdjust="spacing" textLength="139.4668" x="171.75" y="245.4826">maxOverdraw: float</text><rect fill="none" height="6" style="stroke:#C82930;stroke-width:1.0;" width="6" x="159.75" y="255.4328"/><text fill="#000000" font-family="sans-serif" font-size="14" lengthAdjust="spacing" textLength="150.3564" x="171.75" y="261.7795">maxWithdrawal: float</text><line style="stroke:#181818;stroke-width:0.5;" x1="152.75" x2="853.3096" y1="269.0813" y2="269.0813"/><ellipse cx="162.75" cy="282.7297" fill="#84BE84" rx="3" ry="3" style="stroke:#038048;stroke-width:1.0;"/><text fill="#000000" font-family="sans-serif" font-size="14" lengthAdjust="spacing" textLength="227.3975" x="171.75" y="286.0764">this(number: int, owner: Person)</text><ellipse cx="162.75" cy="299.0266" fill="#84BE84" rx="3" ry="3" style="stroke:#038048;stroke-width:1.0;"/><text fill="#000000" font-family="sans-serif" font-size="14" lengthAdjust="spacing" textLength="368.9355" x="171.75" y="302.3732">this(number: int, owner: Person, initialDeposit: float)</text><ellipse cx="162.75" cy="315.3234" fill="#84BE84" rx="3" ry="3" style="stroke:#038048;stroke-width:1.0;"/><text fill="#000000" font-family="sans-serif" font-size="14" lengthAdjust="spacing" textLength="676.5596" x="171.75" y="318.6701">this(number: int, owner: Person, initialDeposit: float, maxOverdraw: float, maxWithdrawal: float)</text><ellipse cx="162.75" cy="331.6203" fill="#84BE84" rx="3" ry="3" style="stroke:#038048;stroke-width:1.0;"/><text fill="#000000" font-family="sans-serif" font-size="14" lengthAdjust="spacing" textLength="184.6865" x="171.75" y="334.967">credit(amount: float): void</text><ellipse cx="162.75" cy="347.9172" fill="#84BE84" rx="3" ry="3" style="stroke:#038048;stroke-width:1.0;"/><text fill="#000000" font-family="sans-serif" font-size="14" lengthAdjust="spacing" textLength="180.1201" x="171.75" y="351.2639">debit(amount: float): void</text><ellipse cx="162.75" cy="364.2141" fill="#84BE84" rx="3" ry="3" style="stroke:#038048;stroke-width:1.0;"/><text fill="#000000" font-family="sans-serif" font-size="14" lengthAdjust="spacing" textLength="352.4951" x="171.75" y="367.5607">transfer(beneficiary: Account, amount: float): void</text><ellipse cx="162.75" cy="380.5109" fill="#84BE84" rx="3" ry="3" style="stroke:#038048;stroke-width:1.0;"/><text fill="#000000" font-family="sans-serif" font-size="14" lengthAdjust="spacing" textLength="164.4658" x="171.75" y="383.8576">isOverdrawn(): boolean</text></g><!--class Main--><g id="elem_Main"><rect codeLine="32" fill="#F1F1F1" height="64.2969" id="Main" rx="2.5" ry="2.5" style="stroke:#181818;stroke-width:0.5;" width="164.291" x="16.88" y="7"/><ellipse cx="78.0651" cy="23" fill="#ADD1B2" rx="11" ry="11" style="stroke:#181818;stroke-width:1.0;"/><path d="M81.0338,28.6406 Q80.4557,28.9375 79.8151,29.0781 Q79.1744,29.2344 78.4713,29.2344 Q75.9713,29.2344 74.6432,27.5938 Q73.3307,25.9375 73.3307,22.8125 Q73.3307,19.6875 74.6432,18.0313 Q75.9713,16.375 78.4713,16.375 Q79.1744,16.375 79.8151,16.5313 Q80.4713,16.6875 81.0338,16.9844 L81.0338,19.7031 Q80.4088,19.125 79.8151,18.8594 Q79.2213,18.5781 78.5963,18.5781 Q77.2526,18.5781 76.5651,19.6563 Q75.8776,20.7188 75.8776,22.8125 Q75.8776,24.9063 76.5651,25.9844 Q77.2526,27.0469 78.5963,27.0469 Q79.2213,27.0469 79.8151,26.7813 Q80.4088,26.5 81.0338,25.9219 L81.0338,28.6406 Z " fill="#000000"/><text fill="#000000" font-family="sans-serif" font-size="14" lengthAdjust="spacing" textLength="33.4209" x="98.5651" y="27.8467">Main</text><line style="stroke:#181818;stroke-width:0.5;" x1="17.88" x2="180.171" y1="39" y2="39"/><line style="stroke:#181818;stroke-width:0.5;" x1="17.88" x2="180.171" y1="47" y2="47"/><ellipse cx="27.88" cy="60.6484" fill="#84BE84" rx="3" ry="3" style="stroke:#038048;stroke-width:1.0;"/><text fill="#000000" font-family="sans-serif" font-size="14" lengthAdjust="spacing" text-decoration="underline" textLength="138.291" x="36.88" y="63.9951">main(args: String[])</text></g><!--link Main to Money--><g id="link_Main_Money"><path codeLine="36" d="M79.22,71.62 C76.67,77 74.45,82.68 73.03,88.3 C40.04,218.8 6,274.43 73.03,391.16 C91.12,422.66 120.67,446.91 152.04,465.23 " fill="none" id="Main-Money" style="stroke:#181818;stroke-width:1.0;"/></g><!--link Main to Account--><g id="link_Main_Account"><path codeLine="37" d="M156.91,71.68 C186.69,87.9 225.19,108.88 265.65,130.92 " fill="none" id="Main-Account" style="stroke:#181818;stroke-width:1.0;"/></g><!--link Main to Person--><g id="link_Main_Person"><path codeLine="38" d="M97.59,71.7 C94.76,148.99 92.01,344.83 134.03,391.16 C225.67,492.19 302.55,418.65 435.03,451.16 C444.89,453.58 454.97,456.15 465.13,458.83 " fill="none" id="Main-Person" style="stroke:#181818;stroke-width:1.0;"/></g><!--reverse link Account to Money--><g id="link_Account_Money"><path codeLine="40" d="M383.6305,400.6052 C365.8205,421.2452 355.94,432.7 340.22,450.92 " fill="none" id="Account-backto-Money" style="stroke:#181818;stroke-width:1.0;"/><polygon fill="none" points="391.47,391.52,384.5218,393.4494,383.6305,400.6052,390.5786,398.6758,391.47,391.52" style="stroke:#181818;stroke-width:1.0;"/></g><!--reverse link Account to Person--><g id="link_Account_Person"><path codeLine="41" d="M585.9065,401.8383 C599.9665,425.5183 607.81,438.74 619.73,458.81 " fill="none" id="Account-backto-Person" style="stroke:#181818;stroke-width:1.0;"/><polygon fill="none" points="579.78,391.52,579.4038,398.7213,585.9065,401.8383,586.2827,394.637,579.78,391.52" style="stroke:#181818;stroke-width:1.0;"/></g><!--SRC=[dLAxRiCm3Dpz5HfjHFw1R0MwfYtGeKFHWPRfX8XD1PASD0ZoxwLZASt3GO5E1ez7tr773PWrB55Lm6jro4mBtgk5PTnBLIheRCzXhfhMGf3QzCuXc_rSlGT7lCncAgp8vub77FGTgH0Mr7KULY2Kqy-B-9MExwl9pZ6BRjxGUSk3cuQS3o_GuLc-L4AvXKJBtHgy6zLta_fgi103e_wJCSDoWm7kkmhTQKsfx8w7OlHtyLYZ__HOuNMBhdQm-tt53hudmGyAgm64Di7H_OMklfOj_gPemIWGjC-uiPvIcl-Vr1CBw4d_WuPnM5F8hov9GjvQggLRO_Mu6HomRz3b5J8sP0YS75NCGwi7K-IJDyu5hQnj4LZYJ84kW5YkUwOEFa0WSnJln3cufK_fVtuD-MSdPbd6H5CL3PphU01Pn9KzJrmY8-i7]--></g></svg>