<svg xmlns="http://www.w3.org/2000/svg" xmlns:xlink="http://www.w3.org/1999/xlink" contentStyleType="text/css" height="571px" preserveAspectRatio="none" style="width:869px;height:571px;background:#FFFFFF;" version="1.1" viewBox="0 0 869 571" width="869px" zoomAndPan="magnify"><defs/><g><!--cluster bank--><g id="cluster_bank"><path d="M131.32,96.3 L171.0661,96.3 A3.75,3.75 0 0 1 173.5661,98.8 L180.5661,118.5969 L860.32,118.5969 A2.5,2.5 0 0 1 862.82,121.0969 L862.82,561.55 A2.5,2.5 0 0 1 860.32,564.05 L131.32,564.05 A2.5,2.5 0 0 1 128.82,561.55 L128.82,98.8 A2.5,2.5 0 0 1 131.32,96.3 " fill="none" style="stroke:#000000;stroke-width:1.5;"/><line style="stroke:#000000;stroke-width:1.5;" x1="128.82" x2="180.5661" y1="118.5969" y2="118.5969"/><text fill="#000000" font-family="sans-serif" font-size="14" font-weight="bold" lengthAdjust="spacing" textLength="38.7461" x="132.82" y="111.2951">bank</text></g><!--class Money--><g id="elem_Money"><rect codeLine="2" fill="#F1F1F1" height="129.4844" id="Money" rx="2.5" ry="2.5" style="stroke:#181818;stroke-width:0.5;" width="265.3057" x="145.16" y="418.57"/><ellipse cx="250.3548" cy="434.57" fill="#ADD1B2" rx="11" ry="11" style="stroke:#181818;stroke-width:1.0;"/><path d="M253.3236,440.2106 Q252.7454,440.5075 252.1048,440.6481 Q251.4642,440.8044 250.7611,440.8044 Q248.2611,440.8044 246.9329,439.1637 Q245.6204,437.5075 245.6204,434.3825 Q245.6204,431.2575 246.9329,429.6012 Q248.2611,427.945 250.7611,427.945 Q251.4642,427.945 252.1048,428.1012 Q252.7611,428.2575 253.3236,428.5544 L253.3236,431.2731 Q252.6986,430.695 252.1048,430.4294 Q251.5111,430.1481 250.8861,430.1481 Q249.5423,430.1481 248.8548,431.2262 Q248.1673,432.2887 248.1673,434.3825 Q248.1673,436.4762 248.8548,437.5544 Q249.5423,438.6169 250.8861,438.6169 Q251.5111,438.6169 252.1048,438.3512 Q252.6986,438.07 253.3236,437.4919 L253.3236,440.2106 Z " fill="#000000"/><text fill="#000000" font-family="sans-serif" font-size="14" lengthAdjust="spacing" textLength="46.416" x="270.8548" y="439.4167">Money</text><line style="stroke:#181818;stroke-width:0.5;" x1="146.16" x2="409.4657" y1="450.57" y2="450.57"/><rect fill="none" height="6" style="stroke:#C82930;stroke-width:1.0;" width="6" x="153.16" y="461.2184"/><text fill="#000000" font-family="sans-serif" font-size="14" lengthAdjust="spacing" textLength="94.6367" x="165.16" y="467.5651">amount: float</text><rect fill="none" height="6" style="stroke:#C82930;stroke-width:1.0;" width="6" x="153.16" y="477.5153"/><text fill="#000000" font-family="sans-serif" font-size="14" lengthAdjust="spacing" textLength="112.499" x="165.16" y="483.862">currency: String</text><line style="stroke:#181818;stroke-width:0.5;" x1="146.16" x2="409.4657" y1="491.1637" y2="491.1637"/><ellipse cx="156.16" cy="504.8122" fill="#84BE84" rx="3" ry="3" style="stroke:#038048;stroke-width:1.0;"/><text fill="#000000" font-family="sans-serif" font-size="14" lengthAdjust="spacing" textLength="239.3057" x="165.16" y="508.1589">this(amount: int, currency: String)</text><ellipse cx="156.16" cy="521.1091" fill="#84BE84" rx="3" ry="3" style="stroke:#038048;stroke-width:1.0;"/><text fill="#000000" font-family="sans-serif" font-size="14" lengthAdjust="spacing" textLength="176.873" x="165.16" y="524.4557">add(that: Money): Money</text><ellipse cx="156.16" cy="537.4059" fill="#84BE84" rx="3" ry="3" style="stroke:#038048;stroke-width:1.0;"/><text fill="#000000" font-family="sans-serif" font-size="14" lengthAdjust="spacing" textLength="175.5742" x="165.16" y="540.7526">sub(that: Money): Money</text></g><!--class Person--><g id="elem_Person"><rect codeLine="10" fill="#F1F1F1" height="113.1875" id="Person" rx="2.5" ry="2.5" style="stroke:#181818;stroke-width:0.5;" width="400.4385" x="445.6" y="426.71"/><ellipse cx="617.7973" cy="442.71" fill="#ADD1B2" rx="11" ry="11" style="stroke:#181818;stroke-width:1.0;"/><path d="M620.766,448.3506 Q620.1879,448.6475 619.5473,448.7881 Q618.9066,448.9444 618.2035,448.9444 Q615.7035,448.9444 614.3754,447.3037 Q613.0629,445.6475 613.0629,442.5225 Q613.0629,439.3975 614.3754,437.7412 Q615.7035,436.085 618.2035,436.085 Q618.9066,436.085 619.5473,436.2412 Q620.2035,436.3975 620.766,436.6944 L620.766,439.4131 Q620.141,438.835 619.5473,438.5694 Q618.9535,438.2881 618.3285,438.2881 Q616.9848,438.2881 616.2973,439.3662 Q615.6098,440.4287 615.6098,442.5225 Q615.6098,444.6162 616.2973,445.6944 Q616.9848,446.7569 618.3285,446.7569 Q618.9535,446.7569 619.5473,446.4912 Q620.141,446.21 620.766,445.6319 L620.766,448.3506 Z " fill="#000000"/><text fill="#000000" font-family="sans-serif" font-size="14" lengthAdjust="spacing" textLength="47.5439" x="638.2973" y="447.5567">Person</text><line style="stroke:#181818;stroke-width:0.5;" x1="446.6" x2="845.0385" y1="458.71" y2="458.71"/><rect fill="none" height="6" style="stroke:#C82930;stroke-width:1.0;" width="6" x="453.6" y="469.3584"/><text fill="#000000" font-family="sans-serif" font-size="14" lengthAdjust="spacing" textLength="119.6084" x="465.6" y="475.7051">firstName: String</text><rect fill="none" height="6" style="stroke:#C82930;stroke-width:1.0;" width="6" x="453.6" y="485.6553"/><text fill="#000000" font-family="sans-serif" font-size="14" lengthAdjust="spacing" textLength="117.5029" x="465.6" y="492.002">lastName: String</text><rect fill="none" height="6" style="stroke:#C82930;stroke-width:1.0;" width="6" x="453.6" y="501.9522"/><text fill="#000000" font-family="sans-serif" font-size="14" lengthAdjust="spacing" textLength="83.0566" x="465.6" y="508.2989">addr: String</text><line style="stroke:#181818;stroke-width:0.5;" x1="446.6" x2="845.0385" y1="515.6006" y2="515.6006"/><ellipse cx="456.6" cy="529.2491" fill="#84BE84" rx="3" ry="3" style="stroke:#038048;stroke-width:1.0;"/><text fill="#000000" font-family="sans-serif" font-size="14" lengthAdjust="spacing" textLength="374.4385" x="465.6" y="532.5957">this(firstName: String, lastName: String, addr: String)</text></g><!--class Account--><g id="elem_Account"><rect codeLine="16" fill="#F1F1F1" height="227.2656" id="Account" rx="2.5" ry="2.5" style="stroke:#181818;stroke-width:0.5;" width="702.5596" x="144.54" y="131.3"/><ellipse cx="463.1836" cy="147.3" fill="#ADD1B2" rx="11" ry="11" style="stroke:#181818;stroke-width:1.0;"/><path d="M466.1523,152.9406 Q465.5742,153.2375 464.9336,153.3781 Q464.2929,153.5344 463.5898,153.5344 Q461.0898,153.5344 459.7617,151.8937 Q458.4492,150.2375 458.4492,147.1125 Q458.4492,143.9875 459.7617,142.3312 Q461.0898,140.675 463.5898,140.675 Q464.2929,140.675 464.9336,140.8312 Q465.5898,140.9875 466.1523,141.2844 L466.1523,144.0031 Q465.5273,143.425 464.9336,143.1594 Q464.3398,142.8781 463.7148,142.8781 Q462.3711,142.8781 461.6836,143.9562 Q460.9961,145.0187 460.9961,147.1125 Q460.9961,149.2062 461.6836,150.2844 Q462.3711,151.3469 463.7148,151.3469 Q464.3398,151.3469 464.9336,151.0812 Q465.5273,150.8 466.1523,150.2219 L466.1523,152.9406 Z " fill="#000000"/><text fill="#000000" font-family="sans-serif" font-size="14" lengthAdjust="spacing" textLength="56.7725" x="483.6836" y="152.1467">Account</text><line style="stroke:#181818;stroke-width:0.5;" x1="145.54" x2="846.0996" y1="163.3" y2="163.3"/><rect fill="none" height="6" style="stroke:#C82930;stroke-width:1.0;" width="6" x="152.54" y="173.9484"/><text fill="#000000" font-family="sans-serif" font-size="14" lengthAdjust="spacing" textLength="82.0586" x="164.54" y="180.2951">number: int</text><rect fill="none" height="6" style="stroke:#C82930;stroke-width:1.0;" width="6" x="152.54" y="190.2453"/><text fill="#000000" font-family="sans-serif" font-size="14" lengthAdjust="spacing" textLength="99.9688" x="164.54" y="196.592">owner: Person</text><rect fill="none" height="6" style="stroke:#C82930;stroke-width:1.0;" width="6" x="152.54" y="206.5422"/><text fill="#000000" font-family="sans-serif" font-size="14" lengthAdjust="spacing" textLength="109.6006" x="164.54" y="212.8889">amount: Money</text><rect fill="none" height="6" style="stroke:#C82930;stroke-width:1.0;" width="6" x="152.54" y="222.8391"/><text fill="#000000" font-family="sans-serif" font-size="14" lengthAdjust="spacing" textLength="139.4668" x="164.54" y="229.1857">maxOverdraw: float</text><rect fill="none" height="6" style="stroke:#C82930;stroke-width:1.0;" width="6" x="152.54" y="239.1359"/><text fill="#000000" font-family="sans-serif" font-size="14" lengthAdjust="spacing" textLength="150.3564" x="164.54" y="245.4826">maxWithdrawal: float</text><line style="stroke:#181818;stroke-width:0.5;" x1="145.54" x2="846.0996" y1="252.7844" y2="252.7844"/><ellipse cx="155.54" cy="266.4328" fill="#84BE84" rx="3" ry="3" style="stroke:#038048;stroke-width:1.0;"/><text fill="#000000" font-family="sans-serif" font-size="14" lengthAdjust="spacing" textLength="227.3975" x="164.54" y="269.7795">this(number: int, owner: Person)</text><ellipse cx="155.54" cy="282.7297" fill="#84BE84" rx="3" ry="3" style="stroke:#038048;stroke-width:1.0;"/><text fill="#000000" font-family="sans-serif" font-size="14" lengthAdjust="spacing" textLength="368.9355" x="164.54" y="286.0764">this(number: int, owner: Person, initialDeposit: float)</text><ellipse cx="155.54" cy="299.0266" fill="#84BE84" rx="3" ry="3" style="stroke:#038048;stroke-width:1.0;"/><text fill="#000000" font-family="sans-serif" font-size="14" lengthAdjust="spacing" textLength="676.5596" x="164.54" y="302.3732">this(number: int, owner: Person, initialDeposit: float, maxOverdraw: float, maxWithdrawal: float)</text><ellipse cx="155.54" cy="315.3234" fill="#84BE84" rx="3" ry="3" style="stroke:#038048;stroke-width:1.0;"/><text fill="#000000" font-family="sans-serif" font-size="14" lengthAdjust="spacing" textLength="184.6865" x="164.54" y="318.6701">credit(amount: float): void</text><ellipse cx="155.54" cy="331.6203" fill="#84BE84" rx="3" ry="3" style="stroke:#038048;stroke-width:1.0;"/><text fill="#000000" font-family="sans-serif" font-size="14" lengthAdjust="spacing" textLength="180.1201" x="164.54" y="334.967">debit(amount: float): void</text><ellipse cx="155.54" cy="347.9172" fill="#84BE84" rx="3" ry="3" style="stroke:#038048;stroke-width:1.0;"/><text fill="#000000" font-family="sans-serif" font-size="14" lengthAdjust="spacing" textLength="352.4951" x="164.54" y="351.2639">transfer(beneficiary: Account, amount: float): void</text></g><!--class Main--><g id="elem_Main"><rect codeLine="30" fill="#F1F1F1" height="64.2969" id="Main" rx="2.5" ry="2.5" style="stroke:#181818;stroke-width:0.5;" width="164.291" x="9.67" y="7"/><ellipse cx="70.8551" cy="23" fill="#ADD1B2" rx="11" ry="11" style="stroke:#181818;stroke-width:1.0;"/><path d="M73.8238,28.6406 Q73.2457,28.9375 72.6051,29.0781 Q71.9644,29.2344 71.2613,29.2344 Q68.7613,29.2344 67.4332,27.5938 Q66.1207,25.9375 66.1207,22.8125 Q66.1207,19.6875 67.4332,18.0313 Q68.7613,16.375 71.2613,16.375 Q71.9644,16.375 72.6051,16.5313 Q73.2613,16.6875 73.8238,16.9844 L73.8238,19.7031 Q73.1988,19.125 72.6051,18.8594 Q72.0113,18.5781 71.3863,18.5781 Q70.0426,18.5781 69.3551,19.6563 Q68.6676,20.7188 68.6676,22.8125 Q68.6676,24.9063 69.3551,25.9844 Q70.0426,27.0469 71.3863,27.0469 Q72.0113,27.0469 72.6051,26.7813 Q73.1988,26.5 73.8238,25.9219 L73.8238,28.6406 Z " fill="#000000"/><text fill="#000000" font-family="sans-serif" font-size="14" lengthAdjust="spacing" textLength="33.4209" x="91.3551" y="27.8467">Main</text><line style="stroke:#181818;stroke-width:0.5;" x1="10.67" x2="172.961" y1="39" y2="39"/><line style="stroke:#181818;stroke-width:0.5;" x1="10.67" x2="172.961" y1="47" y2="47"/><ellipse cx="20.67" cy="60.6484" fill="#84BE84" rx="3" ry="3" style="stroke:#038048;stroke-width:1.0;"/><text fill="#000000" font-family="sans-serif" font-size="14" lengthAdjust="spacing" text-decoration="underline" textLength="138.291" x="29.67" y="63.9951">main(args: String[])</text></g><!--link Main to Money--><g id="link_Main_Money"><path codeLine="34" d="M72.01,71.62 C69.46,77.01 67.24,82.68 65.82,88.3 C36.38,204.76 6,254.4 65.82,358.57 C83.91,390.07 113.46,414.32 144.83,432.64 " fill="none" id="Main-Money" style="stroke:#181818;stroke-width:1.0;"/></g><!--link Main to Account--><g id="link_Main_Account"><path codeLine="35" d="M154.5,71.77 C186.86,88.09 228.51,109.1 271.54,130.8 " fill="none" id="Main-Account" style="stroke:#181818;stroke-width:1.0;"/></g><!--link Main to Person--><g id="link_Main_Person"><path codeLine="36" d="M84.45,71.67 C71.69,134.98 53.36,278.41 126.82,358.57 C218.97,459.14 295.34,386.06 427.82,418.57 C437.68,420.99 447.76,423.56 457.92,426.24 " fill="none" id="Main-Person" style="stroke:#181818;stroke-width:1.0;"/></g><!--reverse link Account to Money--><g id="link_Account_Money"><path codeLine="38" d="M383.4653,367.7519 C364.6453,388.1619 353.76,399.97 336.8,418.35 " fill="none" id="Account-backto-Money" style="stroke:#181818;stroke-width:1.0;"/><polygon fill="none" points="391.6,358.93,384.592,360.6294,383.4653,367.7519,390.4733,366.0525,391.6,358.93" style="stroke:#181818;stroke-width:1.0;"/></g><!--reverse link Account to Person--><g id="link_Account_Person"><path codeLine="39" d="M573.9507,369.0614 C588.7907,392.4414 597.37,405.97 610.22,426.22 " fill="none" id="Account-backto-Person" style="stroke:#181818;stroke-width:1.0;"/><polygon fill="none" points="567.52,358.93,567.3582,366.1393,573.9507,369.0614,574.1125,361.8521,567.52,358.93" style="stroke:#181818;stroke-width:1.0;"/></g><!--SRC=[dLAxRiCm3Dpz5HfjHFw1R0MwfYtGeKFHWPRfXAWj1PISD0ZoxwLYsSt3HO5E0ez7ySZZ5imdh55LO3_LCJCjUAzMpk91eb91vteRbgff7GI9JS-CrXoMwZKmsNMsK653FXzvP8E-8nN2WhhEmmQ4SlwyIAzaV5_DPavPKlE2x9sDQXfY7vwWmwbzgOHo2qallXLuLwhlAlLLOI42XluFniJXeW3RTnNoUKo9tDx6OD1tiQn1Vwaw-7hU8TSC-vyD2lX6OHD1Q4SuYRpuNb__NlnDqO9H86WVSUiyZQRzlrBF3A1dzSSUXh6ca5yTZ7YvSrHBjiRgzsHWiBv1pYkqs90XOBcTj7QjPgjEapqh82ktkb177o2GEOb4iZdmsezUldz4DxCpiooJFsEK-anniZDBk79JnIKoiBu1]--></g></svg>